<?xml version="1.0" encoding="UTF-8"?>
<svg id="a" data-name="Layer 2" xmlns="http://www.w3.org/2000/svg" viewBox="0 0 473.62 470.6">
  <g id="b" data-name="Layer 1-2">
    <g id="c" data-name="oaFK7C.tif">
      <g>
        <path d="M473.26,219.92c-.09-5.53-1.66-11.22-2.48-16.86-3.8-26.02-11.83-50.67-23.94-74-7.46-14.37-16.38-27.78-26.66-40.31-11.06-13.49-23.21-25.88-36.65-36.97-12.48-10.3-26.01-19.05-40.45-26.43-14.67-7.5-29.96-13.3-45.83-17.57-13.46-3.62-27.13-5.96-41.06-6.86-7.72-.49-15.44-1.12-23.18-.86-28,.97-55.19,5.98-81.38,16.17-23.55,9.16-45.05,21.81-64.64,37.71-9.57,7.76-18.22,16.51-26.62,25.53-7.61,8.17-14.77,16.62-20.88,25.98-9.09,13.92-16.6,28.64-22.67,44.1-7.94,20.18-13.04,41.05-15.19,62.64-.18,1.73.78,4-1.63,5.08v36.96c1.32.38,1.39,1.46,1.49,2.58,2.61,30.07,11.22,58.41,24.96,85.22,6.92,13.52,15.06,26.28,24.56,38.14,12.53,15.64,26.54,29.78,42.4,42.08,18.89,14.66,39.48,26.25,61.93,34.41,19.01,6.91,38.57,11.37,58.8,13.03,11.82.97,23.63,1.13,35.42.64,17.51-.72,34.74-3.59,51.61-8.46,20.09-5.8,39.15-13.97,57.1-24.74,14.47-8.69,27.78-18.86,40.03-30.47,7.87-7.46,14.62-15.87,21.53-24.18,6.99-8.39,13.6-17.03,19.35-26.31,10.58-17.09,18.68-35.27,24.38-54.54,4.22-14.25,6.32-28.87,8.7-43.51,2.08-12.8,1.2-25.49,1-38.2h0ZM305.48,41.18c2.7.44,5.2,1.52,7.68,2.55,17.11,7.11,33.3,15.91,48.17,27.03,4.05,3.03,7.96,6.28,11.85,9.53,2,1.67,1.88,2.07-.48,3.19-11.72,5.54-24.16,8.81-36.76,11.61-1.77.4-2.77-.19-3.48-1.87-2.68-6.27-5.14-12.63-8.12-18.77-5.23-10.8-11-21.27-18.02-31.02-.42-.58-1.1-1.07-.84-2.25ZM168.23,99.14c7.11-17.7,15.99-34.39,28.63-48.84,5.79-6.63,12.58-12.13,20.37-16.29,14.52-7.75,28.5-6.03,42.03,2.64,10.49,6.74,18.39,16.02,25.43,26.1,7.94,11.36,14.3,23.6,19.63,36.39,1.08,2.6.77,3.22-1.99,3.72-13.28,2.41-26.68,3.6-40.17,4.11-7.65.29-15.3.4-24.17.41-16.85.19-34.84-.96-52.81-2.85-4.96-.52-9.9-1.16-14.84-1.83-2.96-.4-3.19-.88-2.11-3.56h0ZM100.96,79.2c9.04-6.52,17.89-13.3,27.42-19.12,10.94-6.68,22.12-12.9,34.21-17.32.74-.27,1.46-.87,2.52-.34-1.02,2.29-2.54,4.24-3.89,6.28-8.96,13.52-15.79,28.1-21.61,43.19-1.63,4.22-1.86,4.37-6.16,2.98-1.35-.44-2.69-1-4.07-1.18-9.25-1.22-17.27-5.86-25.74-9.24-.91-.36-1.73-.97-2.56-1.52-2.78-1.87-2.74-1.84-.12-3.73ZM165.11,430.55c-2.3-.28-4.3-1.48-6.35-2.45-15.82-7.49-30.97-16.14-45.08-26.52-4.42-3.25-8.7-6.68-13-10.1-1.89-1.5-1.72-1.99.4-3.09,10.35-5.41,21.65-7.9,32.83-10.74,3.61-.92,4.17-.56,5.54,2.77,6.98,16.96,15.31,33.22,25.28,48.63.25.4.69.75.38,1.5ZM304.07,374.36c-6.49,15.96-14.69,30.97-25.84,44.18-5.79,6.88-12.25,13.13-20.06,17.8-16.52,9.88-32.34,7.91-47.64-2.85-11.29-7.94-19.85-18.38-27.15-29.92-5.97-9.44-10.93-19.42-15.15-29.76-1.12-2.73-.83-3.29,2.15-3.78,12.98-2.11,26.02-3.61,39.18-3.95,3.99-.1,7.96-.7,12.98-.39,9.95-.98,20.93-.35,31.89.04,15.8.56,31.52,2.18,47.18,4.31,3.66.5,3.86.9,2.46,4.32h0ZM375.75,390.96c-16.96,13.57-35.18,25.09-55.16,33.73-4.05,1.75-8.12,3.43-12.32,4.8-.59.19-1.36.65-1.82-.06-.38-.58.27-1.07.59-1.52,10.76-14.95,18.9-31.29,25.72-48.34,1.78-4.43,1.95-4.4,6.67-3.19,9.99,2.54,19.81,5.64,29.62,8.78,2.31.74,4.5,1.73,6.62,2.88.57.31,1.21.61,1.29,1.41-.1.74-.69,1.1-1.21,1.51h0ZM421.63,249.26c6.82.03,13.65-.02,20.47.03,2.61,0,3.14.65,2.78,3.18-2.22,15.52-5.5,30.79-10.42,45.69-4.92,14.91-11.14,29.26-19.03,42.81-4.78,8.2-10.23,15.97-16.15,23.41-1.67,2.12-3.54,1.81-5.57.95-4.37-1.84-8.65-3.92-13.09-5.56-11.48-4.25-23.24-7.64-34.88-11.39-3.17-1.01-3.21-1.16-2.41-4.48,2.16-9.06,4.25-18.15,5.8-27.34.5-2.97.08-3.4-2.88-3.43-3.66-.04-7.33-.01-10.99-.01s-7.33.08-10.98-.03c-2.44-.07-3.57.89-4.06,3.32-1.3,6.53-2.75,13.03-4.31,19.5-1.06,4.37-1.65,4.75-6.07,4.02-7.73-1.27-15.49-2.22-23.27-2.98-11.59-1.14-23.2-2.08-34.85-2.27-12.38-.2-24.78-.4-37.15.45-17.77,1.22-35.46,3.13-53.05,6.03-3.53.58-3.61.47-4.58-3.09-1.97-7.15-3.26-14.44-4.57-21.73-.42-2.35-1.55-3.26-3.86-3.24-7.32.05-14.65,0-21.97.02-3.07.01-3.66.57-3.1,3.56,1.76,9.41,3.38,18.85,5.82,28.11.83,3.15.65,3.75-2.36,4.52-14,3.56-27.5,8.5-40.49,14.82-2.2,1.07-4.61,1.4-6.9,2.17-1.66.55-2.67-.4-3.59-1.58-5.75-7.35-11.01-15.04-15.72-23.09-8.11-13.84-14.6-28.43-19.38-43.73-4.68-14.98-7.74-30.3-9.02-45.96-.17-2.1.74-2.67,2.56-2.67,5.58,0,11.15,0,16.73-.02,3.19-.02,3.82-.63,3.83-3.81.03-7.16.04-14.32,0-21.48-.02-3.03-.67-3.67-3.7-3.69-5.41-.04-10.82,0-16.23-.02-3.09-.02-3.33-.32-3.08-3.28,2.06-24.29,8.29-47.47,18.51-69.59,6.77-14.64,15.12-28.31,25.03-41.03,2.03-2.6,2.46-2.68,5.42-1.25,13.98,6.79,28.79,11.24,43.66,15.54,6.69,1.94,6.92.77,5.13,8.1-1.68,6.86-2.78,13.86-4.06,20.82-.64,3.5-.01,4.19,3.51,4.2,6.83.02,13.65.04,20.48-.02,3.79-.03,4.21-.38,5.04-4.06,1.28-5.68,2.5-11.38,3.69-17.08.89-4.31,1.17-4.61,5.41-3.9,9.44,1.56,18.92,2.89,28.44,3.87,11.5,1.19,23.01,2.25,34.59,2.35,4.48.04,8.96.51,13.46.43,16.89-.32,33.73-1.26,50.51-3.25,7.19-.86,14.38-1.73,21.57-2.58,3.02-.35,3.65.06,4.38,3.03,1.51,6.15,3.05,12.29,3.74,18.59.27,2.39,1.38,3.29,3.74,3.26,7.41-.07,14.82,0,22.22-.04,2.81,0,3.28-.58,2.73-3.32-1.59-7.91-3.22-15.82-4.87-23.72-.72-3.48-.59-3.99,2.76-4.8,12.57-3.04,24.45-8.16,36.68-12.25,4.32-1.44,8.49-3.4,12.63-5.33,1.91-.89,3.08-.79,4.44.96,12.65,16.17,22.84,33.78,30.38,52.85,6.86,17.33,11.35,35.3,13.31,53.87.16,1.49.38,2.97.57,4.45.29,2.23-.65,3.21-2.94,3.19-6.57-.05-13.15,0-19.73,0-4.35,0-4.75.39-4.76,4.66-.01,6.74-.02,13.48,0,20.23.01,3.51.58,4.1,4.05,4.12h0Z" style="fill: #0079d6; stroke-width: 0px;"/>
        <path d="M301.75,253.94c.01,9.75.01,19.5.01,29.24v.31c-.12,1.18-.38,2.33-.74,3.42-1.37,4.18-4.33,7.64-8.15,9.66-.04.03-.09.06-.13.07-.35.19-.71.36-1.07.51-.08.04-.16.07-.24.1-.51.18-1.03.33-1.58.43-3.7.69-7.44.86-11.16.68-.01-.01-.02-.01-.03,0-1.82-.1-3.64-.27-5.45-.52-5.81-.79-8.82-5.6-11.6-9.85-3.9-5.96-6.9-12.51-10.27-18.82-8.64-16.23-17.28-32.46-25.87-48.72-.92-1.75-1.47-3.71-2.16-5.58-.63-1.68-1.22-3.38-2.41-4.74-.64.33-.61.77-.57,1.16,1.07,10.72.37,21.45.46,32.18.13,15.48.04,30.96.02,46.44,0,4.75-.56,5.7-5.23,6.69-5.58,1.18-11.28.82-16.89.25-3.39-.34-4.42-2.05-4.42-5.52,0-35.62,0-71.24,0-106.86,0-6.02,3.58-9.58,9.65-9.67,4.66-.07,9.32-.04,13.98-.04,6.27,0,10.64,3.27,13.91,8.28,10.03,15.35,17.72,31.99,26.55,48,2.86,5.19,5.77,10.35,8.79,15.45,1.13,1.91,2.27,3.81,3.43,5.71,1.42,2.32,1.85,5.18,4.08,7.32.83-1.35.51-2.69.51-3.93,0-5.18.01-10.36.02-15.53.01-19.21.02-38.42-.03-57.63-.02-7.18,1.34-7.88,8.32-8.55,4.13-.39,8.33-.26,12.48-.02,4.56.27,5.85,2,5.84,5.96-.07,24.71-.07,49.42-.06,74.12h0Z" style="fill: #0079d6; stroke-width: 0px;"/>
        <path d="M301.76,283.49c0,1.28-.01,2.46-.74,3.42.36-1.09.62-2.24.74-3.42Z" style="fill: #0079d6; stroke-width: 0px;"/>
        <path d="M176.86,214.14c-2.25-12.69-9.36-22.34-20.29-29.23-9.65-6.08-20.09-9.77-31.49-10.02-12.9-.28-25.81-.13-38.71-.09-4.78.02-7.72,2.81-8.26,7.6-.15,1.32-.15,2.66-.15,3.99-.01,16.81-.01,33.63-.01,50.44.01,6.08.01,12.16.01,18.23,0,11.57-.06,23.15.03,34.72.04,6.04,2.27,8.45,8.02,8.41,12.39-.11,24.81.72,37.18-.56,10.33-1.06,20.41-3.26,29.38-8.86,3.58-2.24,7.59-4.05,10.15-7.56,8.13-11.12,13.82-23.21,15.04-37.22.88-10.02.85-20.01-.9-29.85h0ZM149.22,255c-2.82,10.68-10.61,16.25-20.41,19.72-7.75,2.74-15.79,1.88-23.75,1.93-1.41.01-2.03-.8-2.19-2.18-.32-2.66-.04-5.32-.03-7.97.01-10.32,0-20.63,0-30.95.01-12.23,0-24.46.01-36.69.01-3.68.35-3.97,3.98-4.03,6-.1,12,.13,17.9,1.22,13.5,2.49,21.59,10.88,24.85,23.91,2.91,11.65,2.7,23.39-.36,35.04Z" style="fill: #0079d6; stroke-width: 0px;"/>
        <path d="M391.09,196.09c0,1.91.09,3.83-.02,5.74-.24,4.36-3.41,6.03-7.07,3.71-3.31-2.1-6.71-3.99-10.36-5.47-4.95-2.01-10.09-2.25-15.23-1.57-5.39.71-8.35,4.67-10.18,9.3-1.68,4.26.55,7.62,3.39,10.77,3.18,3.54,7.27,5.45,11.48,7.29,6.4,2.79,12.91,5.4,19.11,8.59,11.91,6.13,16.75,15.67,15.24,29.25-1.55,14-8.74,24.05-21.27,30.51-11.16,5.75-22.92,7.44-35.13,5.29-5.7-1-11.14-3.18-16.43-5.77-6.49-3.18-8.76-8.52-8.95-15.17-.08-2.85-.67-5.81,1.23-8.46,2.1-2.92,3.01-3.21,6.21-1.65,4.87,2.37,8.97,6.09,14.06,8.05,7.47,2.87,15.12,5.1,23.09,2.45,5.32-1.76,9.75-4.86,10.58-11.06.49-3.63-.53-7.08-2.82-9.82-3.26-3.91-7.07-7.11-12.21-8.7-4.76-1.47-9.05-4.18-13.59-6.26-3.7-1.69-7.27-3.45-10.73-5.7-6.33-4.13-9.46-10.1-10.87-16.97-2.77-13.44.16-25.63,10.4-35.16,6.17-5.75,14.08-8.58,22.45-9.33,11.8-1.06,23,.98,33.29,7.33,2.86,1.77,4,4.08,4.27,7.08.17,1.9.03,3.83.03,5.74h.03Z" style="fill: #0079d6; stroke-width: 0px;"/>
      </g>
    </g>
  </g>
</svg>