<svg viewBox="0 0 204 124" xmlns="http://www.w3.org/2000/svg" xmlns:xlink="http://www.w3.org/1999/xlink"><linearGradient id="a" gradientTransform="matrix(256 0 0 -278.2 61455 60011.68)" gradientUnits="userSpaceOnUse" x1="-239.66" x2="-239.66" y1="215.24" y2="215.56"><stop offset="0" stop-color="#fff100"/><stop offset="1" stop-color="#f05a28"/></linearGradient><path d="m146 56.37a36.06 36.06 0 0 0 -.95-5.53 34.12 34.12 0 0 0 -2.49-6.61 36.34 36.34 0 0 0 -4.56-7.09 33.19 33.19 0 0 0 -2.51-2.7 14 14 0 0 0 -1.64-10 14.79 14.79 0 0 0 -9.65 2.49c-.21-.08-.4-.19-.61-.27-.87-.34-1.77-.69-2.72-1s-1.88-.55-2.86-.79-2-.42-3-.58l-.53-.08a18 18 0 0 0 -8.7-10.21c-7.22 4.58-8.57 11-8.57 11l-.08.37c-.4.1-.79.23-1.19.34-.56.16-1.11.37-1.64.58s-1.08.42-1.64.66c-1.08.48-2.17 1-3.23 1.59s-2 1.22-3 1.88l-.27-.11a24.92 24.92 0 0 0 -18.85.77c-.82 10.63 4 17.32 4.94 18.54q-.34 1-.66 2a46.78 46.78 0 0 0 -1.65 7.38c0 .37-.1.74-.13 1.11a24.69 24.69 0 0 0 -11.98 13.89c7.7 8.86 16.69 9.42 16.69 9.42a40.46 40.46 0 0 0 3.94 5.79c.64.77 1.27 1.48 2 2.2a20.73 20.73 0 0 0 .4 14.7 24 24 0 0 0 15.39-4.68c.85.29 1.72.56 2.59.77a38 38 0 0 0 8 1.19h2 .95.43c4 5.77 11.13 6.59 11.13 6.59 5.05-5.32 5.34-10.6 5.34-11.74v-.48a29.17 29.17 0 0 0 3-2.4 32.55 32.55 0 0 0 5.31-6.15l.4-.63a14.22 14.22 0 0 0 9.76-3.58 14.91 14.91 0 0 0 -5.06-9.41.16.16 0 0 0 -.07-.05c-.06 0-.06-.06-.06-.06l-.13-.08c0-.37 0-.71.08-1.08.05-.63.05-1.3.05-1.93v-1-.39-.53a3.68 3.68 0 0 0 0-.5c0-.16 0-.35-.06-.51l-.05-.5-.08-.5c-.1-.66-.21-1.3-.37-2a25.91 25.91 0 0 0 -2.91-7.19 24.29 24.29 0 0 0 -17.69-11.61 21.67 21.67 0 0 0 -3.41-.19h-.85-.42c-.16 0-.32 0-.45 0-.58 0-1.16.13-1.72.23a19.08 19.08 0 0 0 -11.13 6.51 18.69 18.69 0 0 0 -3.07 5.18 18.23 18.23 0 0 0 -1.22 5.56v1.37.35.37.66a14.61 14.61 0 0 0 2.78 7.27 14.88 14.88 0 0 0 3.41 3.28 14.28 14.28 0 0 0 3.92 1.85 13.39 13.39 0 0 0 3.88.56h.69a.66.66 0 0 0 .24 0h.4s.08 0 .1 0h.13.24l.45-.07a2.7 2.7 0 0 0 .43-.11 7.08 7.08 0 0 0 .82-.24 12.06 12.06 0 0 0 1.5-.63c.48-.24.9-.53 1.33-.8.1-.08.23-.16.34-.26a1 1 0 0 0 .16-1.4 1 1 0 0 0 -1.25-.24l-.31.16a8.8 8.8 0 0 1 -1.14.47 8.68 8.68 0 0 1 -1.24.32l-.66.08c-.11 0-.22 0-.35 0h-.63a1.8 1.8 0 0 1 -.4 0h-.16a.38.38 0 0 1 -.18 0c-.14 0-.24 0-.37 0a10.47 10.47 0 0 1 -5.56-2.59 10.14 10.14 0 0 1 -2.11-2.72 10 10 0 0 1 -1.13-3.28 9.57 9.57 0 0 1 -.11-1.77c0-.16 0-.32 0-.48v-.21c0-.08 0-.16 0-.24 0-.31.08-.63.14-1a12.76 12.76 0 0 1 3.67-6.9 14.09 14.09 0 0 1 1.59-1.3 10.93 10.93 0 0 1 1.8-1 11.94 11.94 0 0 1 2-.71 12.61 12.61 0 0 1 2.07-.37h1 .82.3a12.14 12.14 0 0 1 2.24.35 15.69 15.69 0 0 1 10.71 8.28 14.92 14.92 0 0 1 1.45 4.47 11.7 11.7 0 0 1 .13 1.19v.29.29 1.14.68c0 .43-.08.88-.13 1.3s-.13.85-.21 1.27-.19.84-.29 1.24a23.47 23.47 0 0 1 -.8 2.46 21.39 21.39 0 0 1 -2.48 4.52 20.52 20.52 0 0 1 -8 6.54 19.27 19.27 0 0 1 -5 1.5 17.23 17.23 0 0 1 -2.59.27h-1.33a13.29 13.29 0 0 1 -1.4-.08 27.67 27.67 0 0 1 -5.47-1 28.06 28.06 0 0 1 -5.06-2.08 27.23 27.23 0 0 1 -8.47-7 27.92 27.92 0 0 1 -3-4.6 26.94 26.94 0 0 1 -2.81-10.4v-.34-2.34c0-.87.11-1.8.21-2.7s.27-1.82.45-2.72.4-1.8.66-2.7a36.37 36.37 0 0 1 1.88-5.1 28.61 28.61 0 0 1 5.82-8.41c.58-.58 1.19-1.11 1.82-1.64s1.3-1 2-1.43a21.54 21.54 0 0 1 2.09-1.22 12 12 0 0 1 1.08-.52l.56-.24.55-.24a21.59 21.59 0 0 1 2.3-.82 5.58 5.58 0 0 0 .58-.18l.59-.16a12.14 12.14 0 0 1 1.19-.29c.18-.06.39-.08.6-.14l.61-.13c.21 0 .4-.08.61-.1l.29-.06.32-.05.61-.08.68-.08.69-.08h.43.29.13.16l.68-.06h.35.26.58 2.33a31.45 31.45 0 0 1 4.5.5 31.89 31.89 0 0 1 8.2 2.73 32.29 32.29 0 0 1 6.69 4.36l.37.32.34.31c.24.22.45.43.69.64s.45.42.66.63.42.43.63.67a34.39 34.39 0 0 1 2.28 2.64 35.12 35.12 0 0 1 3.36 5.26l.16.32.16.32c.1.21.21.42.29.63s.18.4.29.61.18.4.26.61c.32.79.64 1.56.87 2.27.4 1.17.69 2.2.93 3.1a.69.69 0 0 0 .79.55.72.72 0 0 0 .69-.74 25.85 25.85 0 0 0 -.2-3.53z" fill="url(#a)"/></svg>